<?xml version="1.0" standalone="no"?>
<!DOCTYPE svg PUBLIC "-//W3C//DTD SVG 20010904//EN"
 "http://www.w3.org/TR/2001/REC-SVG-20010904/DTD/svg10.dtd">
<svg version="1.0" xmlns="http://www.w3.org/2000/svg"
 width="1520.000000pt" height="1520.000000pt" viewBox="0 0 1520.000000 1520.000000"
 preserveAspectRatio="xMidYMid meet">
<metadata>
Created by potrace 1.14, written by Peter Selinger 2001-2017
</metadata>
<g transform="translate(0.000000,1520.000000) scale(0.100000,-0.100000)"
fill="#000000" stroke="none">
<path d="M7259 15195 c-2 -2 -62 -6 -134 -9 -128 -7 -150 -8 -270 -21 -33 -4
-78 -8 -100 -10 -43 -4 -115 -13 -155 -20 -14 -3 -45 -7 -70 -9 -25 -3 -58 -7
-75 -10 -111 -18 -324 -57 -345 -61 -14 -4 -38 -8 -55 -11 -16 -3 -79 -17
-140 -31 -60 -13 -117 -26 -125 -28 -298 -68 -779 -227 -1120 -370 -74 -31
-153 -64 -175 -73 -22 -9 -42 -19 -45 -22 -3 -3 -21 -12 -40 -20 -100 -39
-578 -290 -652 -341 -14 -11 -29 -19 -32 -19 -10 0 -210 -127 -376 -238 -209
-141 -481 -345 -620 -466 -20 -17 -57 -49 -84 -71 -56 -46 -58 -48 -196 -175
-109 -100 -330 -320 -415 -412 -85 -92 -191 -211 -221 -248 -16 -19 -31 -37
-34 -40 -3 -3 -33 -39 -65 -80 -33 -41 -62 -77 -66 -80 -3 -3 -41 -52 -85
-108 -71 -93 -102 -136 -134 -182 -6 -8 -38 -53 -71 -100 -33 -47 -99 -146
-146 -220 -47 -74 -96 -151 -109 -170 -34 -53 -165 -284 -219 -385 -55 -103
-82 -157 -155 -310 -101 -214 -160 -350 -160 -371 0 -8 -4 -14 -9 -14 -5 0
-11 -10 -14 -22 -3 -13 -25 -75 -50 -138 -24 -63 -61 -164 -82 -225 -20 -60
-39 -117 -42 -125 -4 -8 -7 -19 -9 -25 -1 -5 -9 -30 -17 -55 -9 -25 -21 -65
-28 -90 -7 -25 -14 -49 -15 -55 -2 -5 -13 -44 -24 -85 -11 -41 -25 -89 -31
-107 -5 -18 -12 -41 -14 -51 -2 -11 -15 -66 -29 -123 -14 -57 -27 -115 -30
-129 -2 -14 -11 -56 -19 -95 -9 -38 -18 -83 -21 -100 -15 -84 -38 -216 -45
-260 -5 -27 -9 -51 -10 -52 -2 -5 -2 -7 -6 -56 -2 -27 -7 -63 -11 -80 -4 -18
-9 -50 -10 -72 -4 -49 -11 -113 -19 -185 -12 -113 -14 -138 -22 -265 -15 -251
-8 -967 12 -1118 4 -32 14 -139 20 -212 4 -47 20 -162 31 -230 3 -16 7 -46 9
-65 7 -57 25 -152 71 -380 25 -118 46 -224 48 -235 2 -11 23 -90 46 -175 23
-85 43 -162 45 -170 9 -38 60 -198 105 -333 166 -489 390 -975 668 -1447 47
-80 93 -154 104 -166 10 -11 18 -24 18 -27 0 -11 142 -221 152 -225 4 -2 8 -8
8 -14 0 -23 434 -588 489 -638 3 -3 38 -41 76 -85 183 -208 486 -510 675 -672
74 -63 102 -87 114 -99 6 -5 81 -65 166 -133 85 -67 166 -131 178 -142 13 -10
26 -19 28 -19 3 0 22 -13 42 -28 106 -81 150 -112 160 -112 5 0 12 -4 14 -8 3
-9 243 -172 252 -172 3 0 32 -18 65 -40 33 -22 62 -40 65 -40 5 0 69 -40 91
-57 6 -5 26 -16 45 -25 19 -10 67 -36 105 -58 130 -74 499 -255 670 -329 94
-40 184 -79 202 -87 17 -8 35 -14 40 -14 4 0 42 -14 83 -31 104 -42 499 -174
585 -195 6 -1 37 -10 70 -19 86 -24 276 -73 305 -79 14 -2 59 -12 100 -21 41
-9 84 -18 95 -21 11 -2 34 -7 50 -9 17 -3 89 -17 160 -30 72 -14 148 -27 170
-29 22 -3 51 -7 65 -10 14 -2 48 -7 75 -11 28 -3 64 -8 80 -10 17 -3 57 -7 90
-10 33 -3 78 -8 100 -10 44 -6 120 -12 295 -22 235 -15 946 -7 1085 11 31 4
134 15 215 22 52 4 115 13 150 19 14 3 45 7 70 10 52 5 85 10 167 24 32 5 75
12 96 16 22 3 58 9 80 14 23 5 80 17 127 26 435 86 1069 284 1427 446 23 10
44 19 47 19 13 0 206 92 411 195 188 95 407 216 503 277 15 10 41 25 57 34 88
49 452 297 575 392 60 45 214 166 235 183 120 100 198 166 229 194 177 158
423 398 541 527 92 100 192 213 221 248 16 19 31 37 34 40 26 23 310 389 383
495 42 60 229 342 269 405 50 79 139 233 184 320 21 41 42 77 45 80 10 8 163
316 219 440 102 225 206 487 272 685 16 50 32 97 35 105 7 19 3 5 59 190 25
85 48 162 50 170 2 8 13 51 25 95 11 44 22 87 24 95 2 8 15 67 29 131 14 64
28 122 30 130 3 8 7 31 10 51 3 21 10 57 15 80 6 24 17 88 25 143 19 122 24
150 26 150 1 0 3 22 5 48 2 27 7 63 11 80 4 18 8 50 10 72 2 22 5 58 8 80 2
22 8 74 11 115 4 41 9 83 11 94 25 135 24 1144 -1 1276 -4 19 -6 49 -21 220
-2 30 -9 84 -15 120 -6 36 -12 81 -14 100 -9 76 -44 285 -50 302 -5 13 -11 50
-20 122 -3 21 -8 42 -11 47 -3 5 -8 22 -10 37 -3 15 -7 36 -9 47 -3 11 -9 40
-14 65 -15 71 -87 348 -111 425 -12 39 -25 84 -30 100 -5 17 -13 46 -20 65 -6
19 -13 42 -15 50 -11 41 -109 312 -159 440 -143 364 -284 654 -511 1055 -15
28 -47 81 -71 118 -24 37 -44 69 -44 72 0 10 -209 317 -310 456 -93 127 -284
371 -325 415 -9 10 -52 61 -115 134 -148 173 -492 515 -690 686 -25 22 -58 50
-74 64 -16 14 -34 30 -40 35 -6 6 -36 30 -66 55 -30 25 -56 48 -58 53 -2 4
-10 7 -18 7 -8 0 -14 3 -14 8 0 4 -51 46 -112 92 -62 47 -117 89 -123 93 -50
40 -178 128 -315 218 -91 60 -169 112 -175 117 -5 4 -17 11 -25 15 -8 4 -33
18 -55 32 -22 13 -53 32 -70 41 -16 9 -32 20 -35 23 -3 3 -21 14 -40 23 -19
10 -62 33 -95 52 -61 36 -529 274 -543 277 -4 0 -36 14 -72 31 -269 122 -842
326 -1060 378 -19 5 -78 20 -130 34 -52 14 -106 27 -120 30 -14 3 -68 15 -120
26 -124 28 -126 28 -185 40 -27 5 -61 12 -75 15 -14 3 -43 7 -65 10 -22 3 -76
12 -120 20 -44 8 -98 17 -120 20 -45 5 -122 16 -146 20 -8 2 -53 6 -100 10
-46 4 -92 9 -101 10 -10 2 -54 7 -97 10 -44 4 -106 9 -138 11 -69 6 -839 14
-844 9z"/>
</g>
</svg>
